<?xml version="1.0" encoding="UTF-8" standalone="no"?>
<!-- Created with Inkscape (http://www.inkscape.org/) -->

<svg
   xmlns:dc="http://purl.org/dc/elements/1.1/"
   xmlns:cc="http://creativecommons.org/ns#"
   xmlns:rdf="http://www.w3.org/1999/02/22-rdf-syntax-ns#"
   xmlns:svg="http://www.w3.org/2000/svg"
   xmlns="http://www.w3.org/2000/svg"
   xmlns:sodipodi="http://sodipodi.sourceforge.net/DTD/sodipodi-0.dtd"
   xmlns:inkscape="http://www.inkscape.org/namespaces/inkscape"
   width="820.07031"
   height="763.93213"
   id="svg3766"
   version="1.1"
   inkscape:version="0.48.4 r9939"
   sodipodi:docname="MLogo.svg">
  <defs
     id="defs3768" />
  <sodipodi:namedview
     id="base"
     pagecolor="#ffffff"
     bordercolor="#666666"
     borderopacity="1.0"
     inkscape:pageopacity="0.0"
     inkscape:pageshadow="2"
     inkscape:zoom="0.35"
     inkscape:cx="-94.964883"
     inkscape:cy="330.5375"
     inkscape:document-units="px"
     inkscape:current-layer="layer1"
     showgrid="false"
     fit-margin-top="5"
     fit-margin-left="5"
     fit-margin-bottom="5"
     fit-margin-right="5"
     inkscape:window-width="1455"
     inkscape:window-height="1103"
     inkscape:window-x="578"
     inkscape:window-y="617"
     inkscape:window-maximized="0" />
  <metadata
     id="metadata3771">
    <rdf:RDF>
      <cc:Work
         rdf:about="">
        <dc:format>image/svg+xml</dc:format>
        <dc:type
           rdf:resource="http://purl.org/dc/dcmitype/StillImage" />
        <dc:title />
      </cc:Work>
    </rdf:RDF>
  </metadata>
  <g
     inkscape:label="Layer 1"
     inkscape:groupmode="layer"
     id="layer1"
     transform="translate(32.892263,-98.967552)">
    <g
       transform="matrix(0.125,0,0,-0.125,-47.723557,911.75121)"
       id="g6"
       style="fill:#b82669;fill-opacity:1;stroke:none">
      <path
         d="M 1251.1992,5486.9492 C 720.00585,5032.8593 223.09399,4039.9678 195.4661,3418.9831 195.661,3266.4972 157.62387,3127.6837 158.67161,2803.3877 167.28105,2216.885 220.99394,1969.8497 397.5466,1546.0127 624.34404,964.16605 1235.3829,705.9213 1709.1483,579.84322 2569.0229,363.48746 3383.0072,418.30367 4224.1314,521.31356 4392.2831,534.27137 4983.3273,645.61474 5596,1139 c 18,14 58,44 89,66 52,36 56,42 51,69 -8,40 -39,71 -85,85 -57,17 -56.6769,20.34 -98,-7 C 5222.6736,1079.6703 4832.9989,889.00504 4440,830 4013.52,750.77338 3833.4761,716.42985 3297.0636,696.25953 2597.9177,703.7662 1625.651,747.13971 1148.5297,1151.7584 730.50499,1441.6147 543.89845,1968.0043 495.26694,2543.7076 c -23.14278,319.3993 -23.68167,557.7346 22.79712,825.4524 142.06609,913.8081 426.06839,1340.2222 1147.78894,2044.9557 1440.902,1181.0689 2937.3969,856.5311 3846.132,275.2127 804.2645,-565.0629 868.164,-1117.522 871.0277,-1501.6377 C 6370.8115,3468.5039 6190.8698,3142.3487 5971,2780 c -159.0682,-252.9673 -321.1241,-442.3387 -511,-620 -85,-81 -237.7868,-201.5617 -276.9103,-217.9323 -8,0 -29.9442,-18.5618 -100.5618,-38.5618 -141.6721,-60.8347 -255.1152,3.4336 -366.5787,88.6085 -55.4829,49.746 -95.9169,148.1181 -105,217 -11.3561,67.045 -28.6357,122.876 -27.2809,184.1574 -13.6604,159.0058 8.0714,309.4315 19.2809,469.8426 10.2474,88.0839 16.2056,164.8906 19,248 2,61 9,186 15,277 6,91 16.6228,166.6398 18.6228,199.6398 4,57 15.1314,190.0975 35.1314,222.0975 54.6527,172.7971 287.0393,949.6482 436.2458,1366.2627 C 5192.7896,5366.4882 5017.6775,5379.8341 4893,5363 c -31,-7 -38,-14 -46,-43 -15.9624,-79.0804 -22.0678,-93.2467 -38,-177 -63.1556,-256.7169 -102.1995,-410.1989 -190.0911,-674.6907 -88.9464,-256.5792 -209.47,-482.5719 -313.5148,-719.4746 -105.4186,-208.8993 -204.1843,-450.3482 -258,-585 -63.303,-162.3249 -127.497,-320.8466 -335.6229,-525.1483 -272.2203,-232.0794 -749.7663,-617.6322 -777.1992,-57.1949 -10.4656,88.7717 -4.1109,366.8233 16,428 23.3526,142.858 43.8705,195.994 69,306 124.1093,537.0113 348.6346,1076.258 555,1562 33.8171,95.2302 17.4532,215.8492 -28.572,310.5085 -55,107 -179.6229,76.8686 -179.6229,-49.1314 -149.6831,-502.0449 -348.445,-882.786 -590.1313,-1321.5762 -57.0747,-111.8595 -69.8651,-138.6368 -89.764,-180.236 -63.0988,-101.5465 -101.4838,-150.5303 -137.236,-220.764 -8,-16 -28,-49 -44,-72 -152.165,-252.4049 -287.3528,-502.4373 -507,-717 -90.2534,-110.4521 -178.6843,-161.2723 -281,-236 -77,-55 -154,-100 -230,-134 -460.9403,-192.0784 -294.8734,101.0583 -243.9365,393.822 73.6897,370.5019 375.2409,724.8067 425,1103 -19.9912,34.5635 -223.3705,145.4356 -249.8711,139.8738 -36,-8 -39.4382,-61.9882 -38.4382,-125.9882 -62.8514,-268.2415 -182.2221,-488.0747 -290,-758 -52.6826,-118.5419 -102.96696,-265.4562 -125,-382 -8,-40 -19,-95 -26,-123 -31.03412,-152.3334 -34.9054,-280.4177 12,-422 162.8802,-385.2085 657.4731,-82.1222 875,70 86,58 190,152 285,258 98.2838,117.2138 219.6805,259.3199 285,358 98.3858,149.5754 184.9185,313.5145 269,466 15,28 44,81 64,119 20,38 41,71 47,73 19,6 26,-28 11,-51 -86.1402,-264.3717 -133.5142,-558.4049 -123,-791 3,-71 6,-137 6,-145 10.1436,-177.5907 39.7383,-352.0609 202,-441 133.084,-57.4251 278.5352,-38.9721 378,-23 139.5029,36.738 294.7719,125.5752 417,208 277.9649,207.2345 479.7238,655.1645 599,938 21.0723,49.9536 36.8205,79.3845 50,121 10,27 33.4382,20.7191 35.0449,-7.6404 C 4332.8136,2991.6348 4286.0066,2708.2511 4287,2430 c 2.9453,-79.1881 -5.2267,-128.3255 27,-230 244.9122,-707.2958 877.7821,-594.4513 1205.4578,-329.8412 303.0024,248.7016 480.7989,427.3682 680.9278,722.9979 466.6858,841.7286 476.2461,1389.4908 408.055,1927.1465 -121.6995,529.8716 -317.5895,744.3478 -543.6397,1002.3027 -313.5873,406.0276 -833.9615,639.0362 -1118.6887,745.2246 -540.316,240.2088 -1330.0107,207.3412 -1595.0634,163.7309 C 2473.71,6323.3153 2103.4696,6185.622 1251.1992,5486.9492 z"
         id="path8"
         inkscape:connector-curvature="0"
         sodipodi:nodetypes="ccccccccccccccccccccccccccccscccccccccccccccccccccccccccccccccccsccccccccccccccccccc"
         style="fill:#b82669;fill-opacity:1" />
    </g>
  </g>
</svg>
